<svg xmlns="http://www.w3.org/2000/svg" width="400" height="400" viewBox="0 0 400 400">
  <rect width="100%" height="100%" fill="#DDDDDD" />
  <path fill="#999999"
    d="M98.25 190.07H85.41v8.56h10.84v4.3H85.41v11.78h-5.4v-28.92h18.24v4.28Zm7.52 12.02h9.32q0-.96-.27-1.81-.27-.85-.81-1.49t-1.37-1.01q-.83-.37-1.93-.37-2.14 0-3.37 1.22t-1.57 3.46Zm12.6 2.98h-12.7q.12 1.58.56 2.73.44 1.15 1.16 1.9t1.71 1.12q.99.37 2.19.37t2.07-.28q.87-.28 1.52-.62.65-.34 1.14-.62.49-.28.95-.28.62 0 .92.46l1.42 1.8q-.82.96-1.84 1.61-1.02.65-2.13 1.04-1.11.39-2.26.55-1.15.16-2.23.16-2.14 0-3.98-.71-1.84-.71-3.2-2.1-1.36-1.39-2.14-3.44t-.78-4.75q0-2.1.68-3.95t1.95-3.22q1.27-1.37 3.1-2.17 1.83-.8 4.13-.8 1.94 0 3.58.62 1.64.62 2.82 1.81t1.85 2.92q.67 1.73.67 3.95 0 1.12-.24 1.51-.24.39-.92.39Zm8.76-2.98h9.32q0-.96-.27-1.81-.27-.85-.81-1.49t-1.37-1.01q-.83-.37-1.93-.37-2.14 0-3.37 1.22t-1.57 3.46Zm12.6 2.98h-12.7q.12 1.58.56 2.73.44 1.15 1.16 1.9t1.71 1.12q.99.37 2.19.37t2.07-.28q.87-.28 1.52-.62.65-.34 1.14-.62.49-.28.95-.28.62 0 .92.46l1.42 1.8q-.82.96-1.84 1.61-1.02.65-2.13 1.04-1.11.39-2.26.55-1.15.16-2.23.16-2.14 0-3.98-.71-1.84-.71-3.2-2.1-1.36-1.39-2.14-3.44t-.78-4.75q0-2.1.68-3.95t1.95-3.22q1.27-1.37 3.1-2.17 1.83-.8 4.13-.8 1.94 0 3.58.62 1.64.62 2.82 1.81t1.85 2.92q.67 1.73.67 3.95 0 1.12-.24 1.51-.24.39-.92.39Zm17.74 3.56v-9.2q-.84-1.02-1.83-1.44-.99-.42-2.13-.42-1.12 0-2.02.42-.9.42-1.54 1.27-.64.85-.98 2.16-.34 1.31-.34 3.09 0 1.8.29 3.05.29 1.25.83 2.04t1.32 1.14q.78.35 1.74.35 1.54 0 2.62-.64t2.04-1.82Zm0-23.64h4.94v29.72h-3.02q-.98 0-1.24-.9l-.42-1.98q-1.24 1.42-2.85 2.3-1.61.88-3.75.88-1.68 0-3.08-.7-1.4-.7-2.41-2.03-1.01-1.33-1.56-3.29t-.55-4.48q0-2.28.62-4.24.62-1.96 1.78-3.4 1.16-1.44 2.78-2.25 1.62-.81 3.64-.81 1.72 0 2.94.54t2.18 1.46v-10.82Zm25.7 15.34h4.02q1.48 0 2.58-.37t1.83-1.06q.73-.69 1.09-1.68.36-.99.36-2.21 0-1.16-.36-2.1-.36-.94-1.08-1.6-.72-.66-1.82-1.01t-2.6-.35h-4.02v10.38Zm-5.38-14.54h9.4q2.9 0 5.02.68 2.12.68 3.5 1.9 1.38 1.22 2.05 2.92.67 1.7.67 3.72 0 2.1-.7 3.85t-2.1 3.01q-1.4 1.26-3.51 1.96t-4.93.7h-4.02v10.18h-5.38v-28.92Zm28.34 9.64.3 2.32q.96-1.84 2.28-2.89 1.32-1.05 3.12-1.05 1.42 0 2.28.62l-.32 3.7q-.1.36-.29.51-.19.15-.51.15-.3 0-.89-.1-.59-.1-1.15-.1-.82 0-1.46.24t-1.15.69q-.51.45-.9 1.09-.39.64-.73 1.46v12.64h-4.94v-20.52h2.9q.76 0 1.06.27.3.27.4.97Zm14.46 6.66h9.32q0-.96-.27-1.81-.27-.85-.81-1.49t-1.37-1.01q-.83-.37-1.93-.37-2.14 0-3.37 1.22t-1.57 3.46Zm12.6 2.98h-12.7q.12 1.58.56 2.73.44 1.15 1.16 1.9t1.71 1.12q.99.37 2.19.37t2.07-.28q.87-.28 1.52-.62.65-.34 1.14-.62.49-.28.95-.28.62 0 .92.46l1.42 1.8q-.82.96-1.84 1.61-1.02.65-2.13 1.04-1.11.39-2.26.55-1.15.16-2.23.16-2.14 0-3.98-.71-1.84-.71-3.2-2.1-1.36-1.39-2.14-3.44t-.78-4.75q0-2.1.68-3.95t1.95-3.22q1.27-1.37 3.1-2.17 1.83-.8 4.13-.8 1.94 0 3.58.62 1.64.62 2.82 1.81t1.85 2.92q.67 1.73.67 3.95 0 1.12-.24 1.51-.24.39-.92.39Zm19.46-10.88h3.9l-8.14 20.52h-4.48l-8.14-20.52h4.08q.56 0 .93.26t.49.66l3.96 10.96q.32.96.56 1.88.24.92.42 1.84.2-.92.44-1.84t.58-1.88l4.04-10.96q.14-.4.5-.66t.86-.26Zm6.68 0h4.96v20.52h-4.96v-20.52Zm5.64-5.98q0 .64-.26 1.2-.26.56-.69.98-.43.42-1.01.67-.58.25-1.24.25-.64 0-1.21-.25t-.99-.67q-.42-.42-.67-.98-.25-.56-.25-1.2 0-.66.25-1.24t.67-1q.42-.42.99-.67.57-.25 1.21-.25.66 0 1.24.25t1.01.67q.43.42.69 1 .26.58.26 1.24Zm8.26 13.88h9.32q0-.96-.27-1.81-.27-.85-.81-1.49t-1.37-1.01q-.83-.37-1.93-.37-2.14 0-3.37 1.22t-1.57 3.46Zm12.6 2.98h-12.7q.12 1.58.56 2.73.44 1.15 1.16 1.9t1.71 1.12q.99.37 2.19.37t2.07-.28q.87-.28 1.52-.62.65-.34 1.14-.62.49-.28.95-.28.62 0 .92.46l1.42 1.8q-.82.96-1.84 1.61-1.02.65-2.13 1.04-1.11.39-2.26.55-1.15.16-2.23.16-2.14 0-3.98-.71-1.84-.71-3.2-2.1-1.36-1.39-2.14-3.44t-.78-4.75q0-2.1.68-3.95t1.95-3.22q1.27-1.37 3.1-2.17 1.83-.8 4.13-.8 1.94 0 3.58.62 1.64.62 2.82 1.81t1.85 2.92q.67 1.73.67 3.95 0 1.12-.24 1.51-.24.39-.92.39Zm30.4-10.88h3.76l-6.52 20.52h-3.96q-.68 0-.94-.88l-3.68-11.86q-.18-.6-.33-1.19-.15-.59-.25-1.19-.12.6-.27 1.21-.15.61-.33 1.21l-3.74 11.82q-.24.88-1.06.88h-3.8l-6.5-20.52h3.94q.54 0 .92.26t.5.66l2.94 10.96q.22.9.39 1.76t.29 1.72q.22-.86.47-1.72.25-.86.53-1.76l3.4-11q.12-.4.47-.66t.85-.26h2.18q.52 0 .89.26t.49.66l3.3 11q.26.9.49 1.77.23.87.45 1.73.26-1.7.74-3.5l3.02-10.96q.14-.4.5-.66t.86-.26Z" />
</svg>